<mxfile host="app.diagrams.net" modified="2022-08-24T10:10:20.436Z" agent="5.0 (Windows NT 10.0; Win64; x64) AppleWebKit/537.36 (KHTML, like Gecko) Chrome/104.0.0.0 Safari/537.36" etag="zDwGh4fqJy894fzPz3ms" version="20.2.7" type="github">
  <diagram name="Page-1" id="c7558073-3199-34d8-9f00-42111426c3f3">
    <mxGraphModel dx="1221" dy="634" grid="1" gridSize="10" guides="1" tooltips="1" connect="1" arrows="1" fold="1" page="1" pageScale="1" pageWidth="1169" pageHeight="827" background="none" math="0" shadow="0">
      <root>
        <mxCell id="0" />
        <mxCell id="1" parent="0" />
        <mxCell id="2" value="&lt;p style=&quot;margin: 4px 0px 0px; text-align: center; text-decoration: underline; font-size: 17px;&quot;&gt;&lt;strong style=&quot;font-size: 17px;&quot;&gt;&amp;nbsp;UE4&lt;/strong&gt;&lt;/p&gt;&lt;hr style=&quot;font-size: 17px;&quot;&gt;&lt;p style=&quot;margin: 0px 0px 0px 8px; font-size: 17px;&quot;&gt;&lt;span style=&quot;background-color: initial; font-size: 17px;&quot;&gt;&lt;font style=&quot;font-size: 17px;&quot;&gt;Visual&lt;/font&gt;&lt;/span&gt;&lt;br style=&quot;font-size: 17px;&quot;&gt;&lt;/p&gt;&lt;p style=&quot;margin: 0px 0px 0px 8px; font-size: 17px;&quot;&gt;&lt;span style=&quot;background-color: initial; font-weight: normal; font-size: 17px;&quot;&gt;&lt;font style=&quot;font-size: 17px;&quot;&gt;(Сервер)&lt;/font&gt;&lt;/span&gt;&lt;br style=&quot;font-size: 17px;&quot;&gt;&lt;/p&gt;&lt;p style=&quot;margin: 0px 0px 0px 8px; font-size: 17px;&quot;&gt;&lt;span style=&quot;font-size: 17px;&quot;&gt;&lt;br style=&quot;font-size: 17px;&quot;&gt;&lt;/span&gt;&lt;/p&gt;" style="verticalAlign=middle;align=center;overflow=fill;fontSize=17;fontFamily=Helvetica;html=1;rounded=1;fontStyle=1;strokeWidth=2;fillColor=#E6FFCC;spacingLeft=0;labelBorderColor=default;spacing=1;" parent="1" vertex="1">
          <mxGeometry x="485" y="190" width="190" height="100" as="geometry" />
        </mxCell>
        <mxCell id="5" value="Управляющая программа / Сервер-Клиент" style="shape=process;whiteSpace=wrap;align=center;verticalAlign=middle;size=0.0475;fontStyle=1;strokeWidth=2;fillColor=#FFCCCC;fontSize=18;spacing=1;" parent="1" vertex="1">
          <mxGeometry x="360" y="400" width="440" height="90" as="geometry" />
        </mxCell>
        <mxCell id="9" value="&lt;p style=&quot;margin: 4px 0px 0px; text-align: center; text-decoration: underline; font-size: 17px;&quot;&gt;&lt;strong style=&quot;font-size: 17px;&quot;&gt;3. ПО&lt;br style=&quot;font-size: 17px;&quot;&gt;&lt;/strong&gt;&lt;/p&gt;&lt;hr style=&quot;font-size: 17px;&quot;&gt;&lt;p style=&quot;margin: 0px 0px 0px 8px; font-size: 17px;&quot;&gt;&lt;/p&gt;&lt;div style=&quot;font-size: 17px;&quot;&gt;&lt;span style=&quot;background-color: initial; font-size: 17px;&quot;&gt;Органы&lt;/span&gt;&lt;/div&gt;&lt;div style=&quot;font-size: 17px;&quot;&gt;&lt;span style=&quot;background-color: initial; font-size: 17px;&quot;&gt;Управления&lt;/span&gt;&lt;/div&gt;&lt;i style=&quot;background-color: initial; font-weight: normal; font-size: 17px;&quot;&gt;&lt;div style=&quot;font-size: 17px;&quot;&gt;&lt;i style=&quot;background-color: initial; font-size: 17px;&quot;&gt;(сервер)&lt;/i&gt;&lt;/div&gt;&lt;/i&gt;&lt;p style=&quot;font-size: 17px;&quot;&gt;&lt;/p&gt;" style="verticalAlign=middle;align=center;overflow=fill;fontSize=17;fontFamily=Helvetica;html=1;rounded=1;fontStyle=1;strokeWidth=2;fillColor=#E6FFCC;spacing=1;" parent="1" vertex="1">
          <mxGeometry x="820" y="590" width="150" height="120" as="geometry" />
        </mxCell>
        <mxCell id="10" value="&lt;p style=&quot;margin: 4px 0px 0px; text-align: center; text-decoration: underline; line-height: 1.1; font-size: 17px;&quot;&gt;&lt;strong style=&quot;font-size: 17px;&quot;&gt;1. ПО&lt;br style=&quot;font-size: 17px;&quot;&gt;&lt;/strong&gt;&lt;/p&gt;&lt;hr style=&quot;font-size: 17px;&quot;&gt;&lt;font style=&quot;font-size: 17px;&quot;&gt;&lt;span style=&quot;font-size: 17px;&quot;&gt;Имитатор&amp;nbsp;&lt;/span&gt;&lt;br style=&quot;font-size: 17px;&quot;&gt;&lt;span style=&quot;font-size: 17px; background-color: initial;&quot;&gt;кабины&lt;br style=&quot;font-size: 17px;&quot;&gt;&lt;/span&gt;&lt;i style=&quot;font-size: 17px; font-weight: normal; background-color: initial;&quot;&gt;(сервер)&lt;/i&gt;&lt;span style=&quot;font-size: 17px; background-color: initial;&quot;&gt;&lt;br style=&quot;font-size: 17px;&quot;&gt;&lt;/span&gt;&lt;/font&gt;" style="verticalAlign=middle;align=center;overflow=fill;fontSize=17;fontFamily=Helvetica;html=1;rounded=1;fontStyle=1;strokeWidth=2;fillColor=#E6FFCC;spacing=1;" parent="1" vertex="1">
          <mxGeometry x="200" y="590" width="130" height="110" as="geometry" />
        </mxCell>
        <mxCell id="11" value="&lt;p style=&quot;margin: 4px 0px 0px; text-align: center; text-decoration: underline; font-size: 17px;&quot;&gt;&lt;strong style=&quot;font-size: 17px;&quot;&gt;2. ПО&lt;/strong&gt;&lt;/p&gt;&lt;hr style=&quot;font-size: 17px;&quot;&gt;&lt;p style=&quot;margin: 0px 0px 0px 8px; font-size: 17px;&quot;&gt;&lt;span style=&quot;background-color: initial; font-size: 17px;&quot;&gt;Платформа&lt;br style=&quot;font-size: 17px;&quot;&gt;&lt;/span&gt;&lt;i style=&quot;background-color: initial; font-weight: normal; font-size: 17px;&quot;&gt;(сервер)&lt;/i&gt;&lt;br style=&quot;font-size: 17px;&quot;&gt;&lt;/p&gt;" style="verticalAlign=middle;align=center;overflow=fill;fontSize=17;fontFamily=Helvetica;html=1;rounded=1;fontStyle=1;strokeWidth=2;fillColor=#E6FFCC;spacing=1;" parent="1" vertex="1">
          <mxGeometry x="510" y="620" width="140" height="110" as="geometry" />
        </mxCell>
        <mxCell id="56" value="" style="edgeStyle=elbowEdgeStyle;elbow=horizontal;strokeColor=#990000;strokeWidth=2;spacing=1;fontSize=19;" parent="1" source="2" target="5" edge="1">
          <mxGeometry width="100" height="100" relative="1" as="geometry">
            <mxPoint x="230" y="510" as="sourcePoint" />
            <mxPoint x="330" y="410" as="targetPoint" />
            <Array as="points">
              <mxPoint x="581" y="360" />
              <mxPoint x="586" y="350" />
              <mxPoint x="460" y="370" />
            </Array>
          </mxGeometry>
        </mxCell>
        <mxCell id="68" value="" style="edgeStyle=elbowEdgeStyle;elbow=horizontal;strokeColor=#990000;strokeWidth=2;spacing=1;fontSize=19;exitX=0;exitY=0.75;exitDx=0;exitDy=0;" parent="1" source="fQuNa7zmRM5pAZj9dZrN-105" target="5" edge="1">
          <mxGeometry width="100" height="100" relative="1" as="geometry">
            <mxPoint x="850" y="240" as="sourcePoint" />
            <mxPoint x="690" y="260" as="targetPoint" />
            <Array as="points">
              <mxPoint x="770" y="250" />
              <mxPoint x="770" y="360" />
              <mxPoint x="770" y="380" />
              <mxPoint x="760" y="360" />
              <mxPoint x="750" y="370" />
            </Array>
          </mxGeometry>
        </mxCell>
        <mxCell id="77" value="" style="edgeStyle=elbowEdgeStyle;elbow=horizontal;strokeColor=#990000;strokeWidth=2;spacing=1;fontSize=19;" parent="1" source="5" target="9" edge="1">
          <mxGeometry width="100" height="100" relative="1" as="geometry">
            <mxPoint x="580" y="600" as="sourcePoint" />
            <mxPoint x="680" y="500" as="targetPoint" />
            <Array as="points">
              <mxPoint x="730" y="610" />
              <mxPoint x="720" y="610" />
              <mxPoint x="750" y="610" />
              <mxPoint x="740" y="540" />
              <mxPoint x="750" y="610" />
              <mxPoint x="740" y="490" />
            </Array>
          </mxGeometry>
        </mxCell>
        <mxCell id="88" value="" style="edgeStyle=elbowEdgeStyle;elbow=horizontal;strokeColor=#990000;strokeWidth=2;spacing=1;fontSize=19;" parent="1" source="5" target="11" edge="1">
          <mxGeometry width="100" height="100" relative="1" as="geometry">
            <mxPoint x="230" y="510" as="sourcePoint" />
            <mxPoint x="330" y="410" as="targetPoint" />
            <Array as="points">
              <mxPoint x="580" y="470" />
              <mxPoint x="590" y="500" />
              <mxPoint x="581" y="540" />
              <mxPoint x="570" y="540" />
              <mxPoint x="570" y="470" />
              <mxPoint x="560" y="530" />
              <mxPoint x="570" y="480" />
            </Array>
          </mxGeometry>
        </mxCell>
        <mxCell id="91" value="CAN" style="text;spacingTop=-5;align=center;fontStyle=1;fontSize=17;spacing=1;strokeWidth=2;" parent="1" vertex="1">
          <mxGeometry x="365" y="550" width="40" height="20" as="geometry" />
        </mxCell>
        <mxCell id="92" value="" style="edgeStyle=elbowEdgeStyle;elbow=horizontal;strokeColor=#990000;strokeWidth=2;spacing=1;fontSize=19;" parent="1" source="5" target="10" edge="1">
          <mxGeometry width="100" height="100" relative="1" as="geometry">
            <mxPoint x="210.0000000000001" y="510" as="sourcePoint" />
            <mxPoint x="310.0000000000001" y="410" as="targetPoint" />
            <Array as="points">
              <mxPoint x="420" y="610" />
              <mxPoint x="380" y="610" />
              <mxPoint x="420" y="520" />
              <mxPoint x="410" y="640" />
              <mxPoint x="400" y="620" />
              <mxPoint x="410" y="580" />
              <mxPoint x="420" y="500" />
              <mxPoint x="430" y="480" />
            </Array>
          </mxGeometry>
        </mxCell>
        <mxCell id="93" value="" style="edgeStyle=elbowEdgeStyle;elbow=horizontal;strokeColor=#990000;strokeWidth=2;spacing=1;fontSize=19;" parent="1" source="10" target="5" edge="1">
          <mxGeometry width="100" height="100" relative="1" as="geometry">
            <mxPoint x="220" y="520" as="sourcePoint" />
            <mxPoint x="320" y="420" as="targetPoint" />
            <Array as="points">
              <mxPoint x="440" y="550" />
              <mxPoint x="430" y="620" />
              <mxPoint x="450" y="610" />
              <mxPoint x="390" y="480" />
              <mxPoint x="380" y="600" />
              <mxPoint x="390" y="590" />
              <mxPoint x="400" y="500" />
              <mxPoint x="410" y="480" />
            </Array>
          </mxGeometry>
        </mxCell>
        <mxCell id="95" value="QT, C++" style="text;spacingTop=7;align=center;labelBackgroundColor=none;labelBorderColor=none;fontStyle=1;spacing=1;perimeterSpacing=0;strokeWidth=2;fontSize=17;" parent="1" vertex="1">
          <mxGeometry x="325" y="360" width="80" height="40" as="geometry" />
        </mxCell>
        <mxCell id="fQuNa7zmRM5pAZj9dZrN-97" value="TCP" style="text;spacingTop=-5;align=center;fontStyle=1;fontSize=17;spacing=1;strokeWidth=2;" vertex="1" parent="1">
          <mxGeometry x="590" y="540" width="35" height="20" as="geometry" />
        </mxCell>
        <mxCell id="fQuNa7zmRM5pAZj9dZrN-98" value="TCP" style="text;spacingTop=-5;align=center;fontStyle=1;fontSize=17;spacing=1;strokeWidth=2;" vertex="1" parent="1">
          <mxGeometry x="770" y="570" width="35" height="20" as="geometry" />
        </mxCell>
        <mxCell id="fQuNa7zmRM5pAZj9dZrN-102" value="" style="edgeStyle=elbowEdgeStyle;elbow=horizontal;strokeColor=#990000;strokeWidth=2;exitX=1;exitY=0.5;exitDx=0;exitDy=0;spacing=1;fontSize=17;" edge="1" parent="1" source="5" target="fQuNa7zmRM5pAZj9dZrN-105">
          <mxGeometry width="100" height="100" relative="1" as="geometry">
            <mxPoint x="840" y="491" as="sourcePoint" />
            <mxPoint x="870" y="300" as="targetPoint" />
            <Array as="points">
              <mxPoint x="890" y="380" />
              <mxPoint x="920" y="370" />
              <mxPoint x="870" y="370" />
              <mxPoint x="810" y="370" />
              <mxPoint x="830" y="370" />
              <mxPoint x="810" y="380" />
              <mxPoint x="795" y="390" />
              <mxPoint x="800" y="400" />
              <mxPoint x="810" y="390" />
              <mxPoint x="830" y="420" />
              <mxPoint x="889" y="486" />
              <mxPoint x="909" y="476" />
              <mxPoint x="849" y="346" />
              <mxPoint x="839" y="466" />
              <mxPoint x="849" y="456" />
              <mxPoint x="859" y="366" />
              <mxPoint x="869" y="346" />
            </Array>
          </mxGeometry>
        </mxCell>
        <mxCell id="fQuNa7zmRM5pAZj9dZrN-105" value="Математичекая&#xa;модель&#xa;полетов" style="whiteSpace=wrap;align=center;verticalAlign=middle;fontStyle=1;strokeWidth=2;fillColor=#FFFFCC;strokeColor=#000000;labelBackgroundColor=none;labelBorderColor=none;spacing=1;fontSize=17;" vertex="1" parent="1">
          <mxGeometry x="860" y="190" width="140" height="80" as="geometry" />
        </mxCell>
        <mxCell id="fQuNa7zmRM5pAZj9dZrN-109" style="edgeStyle=orthogonalEdgeStyle;rounded=0;orthogonalLoop=1;jettySize=auto;html=1;exitX=0.5;exitY=1;exitDx=0;exitDy=0;fontSize=17;spacing=1;strokeWidth=2;" edge="1" parent="1" source="fQuNa7zmRM5pAZj9dZrN-105" target="fQuNa7zmRM5pAZj9dZrN-105">
          <mxGeometry relative="1" as="geometry" />
        </mxCell>
        <mxCell id="fQuNa7zmRM5pAZj9dZrN-119" value="&lt;span style=&quot;color: rgb(0, 0, 0); font-family: Helvetica; font-size: 17px; font-style: normal; font-variant-ligatures: normal; font-variant-caps: normal; font-weight: 700; letter-spacing: normal; orphans: 2; text-align: center; text-indent: 0px; text-transform: none; widows: 2; word-spacing: 0px; -webkit-text-stroke-width: 0px; background-color: rgb(248, 249, 250); text-decoration-thickness: initial; text-decoration-style: initial; text-decoration-color: initial; float: none; display: inline !important;&quot;&gt;C#&lt;/span&gt;" style="text;whiteSpace=wrap;html=1;fontSize=17;" vertex="1" parent="1">
          <mxGeometry x="325" y="545" width="35" height="30" as="geometry" />
        </mxCell>
        <mxCell id="fQuNa7zmRM5pAZj9dZrN-122" value="" style="endArrow=none;html=1;rounded=0;shadow=0;sketch=0;fontSize=15;strokeWidth=2;" edge="1" parent="1">
          <mxGeometry width="50" height="50" relative="1" as="geometry">
            <mxPoint x="40" y="800" as="sourcePoint" />
            <mxPoint x="40" y="40" as="targetPoint" />
          </mxGeometry>
        </mxCell>
        <mxCell id="fQuNa7zmRM5pAZj9dZrN-125" value="" style="endArrow=none;html=1;rounded=0;shadow=0;sketch=0;fontSize=15;strokeWidth=2;" edge="1" parent="1">
          <mxGeometry width="50" height="50" relative="1" as="geometry">
            <mxPoint x="1120" y="799.9999999999998" as="sourcePoint" />
            <mxPoint x="1120" y="40" as="targetPoint" />
          </mxGeometry>
        </mxCell>
        <mxCell id="fQuNa7zmRM5pAZj9dZrN-127" value="" style="endArrow=none;html=1;rounded=0;shadow=0;sketch=0;fontSize=15;strokeWidth=2;" edge="1" parent="1">
          <mxGeometry width="50" height="50" relative="1" as="geometry">
            <mxPoint x="40" y="800" as="sourcePoint" />
            <mxPoint x="1120.9410903033088" y="800" as="targetPoint" />
          </mxGeometry>
        </mxCell>
        <mxCell id="fQuNa7zmRM5pAZj9dZrN-128" value="" style="endArrow=none;html=1;rounded=0;shadow=0;sketch=0;fontSize=15;strokeWidth=2;" edge="1" parent="1">
          <mxGeometry width="50" height="50" relative="1" as="geometry">
            <mxPoint x="40" y="40" as="sourcePoint" />
            <mxPoint x="1120" y="40" as="targetPoint" />
          </mxGeometry>
        </mxCell>
        <mxCell id="fQuNa7zmRM5pAZj9dZrN-134" value="&lt;p style=&quot;margin: 4px 0px 0px; text-align: center; text-decoration: underline; line-height: 1.1; font-size: 18px;&quot;&gt;&lt;/p&gt;&lt;font style=&quot;&quot;&gt;&lt;span style=&quot;background-color: initial;&quot;&gt;&lt;br style=&quot;font-size: 18px;&quot;&gt;&lt;font style=&quot;&quot;&gt;&lt;font style=&quot;font-size: 17px;&quot;&gt;Инструктор&lt;/font&gt;&lt;/font&gt;&lt;br style=&quot;font-size: 18px;&quot;&gt;&lt;/span&gt;&lt;/font&gt;" style="verticalAlign=middle;align=center;overflow=fill;fontSize=18;fontFamily=Helvetica;html=1;rounded=1;fontStyle=1;strokeWidth=2;fillColor=#E6FFCC;spacing=1;perimeterSpacing=0;spacingBottom=0;spacingTop=1;" vertex="1" parent="1">
          <mxGeometry x="195" y="200" width="140" height="90" as="geometry" />
        </mxCell>
        <mxCell id="fQuNa7zmRM5pAZj9dZrN-135" value="" style="edgeStyle=elbowEdgeStyle;elbow=horizontal;strokeColor=#990000;strokeWidth=2;spacing=1;fontSize=19;exitX=1;exitY=0.5;exitDx=0;exitDy=0;" edge="1" parent="1" source="fQuNa7zmRM5pAZj9dZrN-134">
          <mxGeometry width="100" height="100" relative="1" as="geometry">
            <mxPoint x="270" y="300" as="sourcePoint" />
            <mxPoint x="440" y="400" as="targetPoint" />
            <Array as="points">
              <mxPoint x="440" y="370" />
              <mxPoint x="430" y="320" />
              <mxPoint x="420" y="400" />
              <mxPoint x="350" y="310" />
              <mxPoint x="275" y="360" />
              <mxPoint x="149" y="380" />
            </Array>
          </mxGeometry>
        </mxCell>
      </root>
    </mxGraphModel>
  </diagram>
</mxfile>
